<svg width="165" height="14" viewBox="0 0 165 14" fill="none" xmlns="http://www.w3.org/2000/svg">
<path d="M5.17045 12.1932C4.27273 12.1894 3.50568 11.9527 2.86932 11.483C2.23295 11.0133 1.74621 10.3295 1.40909 9.43182C1.07197 8.53409 0.903409 7.45265 0.903409 6.1875C0.903409 4.92614 1.07197 3.84848 1.40909 2.95455C1.75 2.06061 2.23864 1.37879 2.875 0.909091C3.51515 0.439394 4.2803 0.204545 5.17045 0.204545C6.06061 0.204545 6.82386 0.441287 7.46023 0.914772C8.09659 1.38447 8.58333 2.06629 8.92045 2.96023C9.26136 3.85038 9.43182 4.92614 9.43182 6.1875C9.43182 7.45644 9.26326 8.53977 8.92614 9.4375C8.58902 10.3314 8.10227 11.0152 7.46591 11.4886C6.82955 11.9583 6.06439 12.1932 5.17045 12.1932ZM5.17045 10.6761C5.95833 10.6761 6.57386 10.2917 7.01705 9.52273C7.46402 8.75379 7.6875 7.64205 7.6875 6.1875C7.6875 5.22159 7.58523 4.4053 7.38068 3.73864C7.17992 3.06818 6.89015 2.56061 6.51136 2.21591C6.13636 1.86742 5.68939 1.69318 5.17045 1.69318C4.38636 1.69318 3.77083 2.07954 3.32386 2.85227C2.87689 3.625 2.65152 4.73674 2.64773 6.1875C2.64773 7.1572 2.74811 7.97727 2.94886 8.64773C3.15341 9.31439 3.44318 9.82008 3.81818 10.1648C4.19318 10.5057 4.64394 10.6761 5.17045 10.6761ZM15.8622 0.363636V12H14.1009V2.125H14.0327L11.2486 3.94318V2.26136L14.152 0.363636H15.8622Z" fill="#A0AEC0"/>
<path d="M150.17 12.1932C149.273 12.1894 148.506 11.9527 147.869 11.483C147.233 11.0133 146.746 10.3295 146.409 9.43182C146.072 8.53409 145.903 7.45265 145.903 6.1875C145.903 4.92614 146.072 3.84848 146.409 2.95455C146.75 2.06061 147.239 1.37879 147.875 0.909091C148.515 0.439394 149.28 0.204545 150.17 0.204545C151.061 0.204545 151.824 0.441287 152.46 0.914772C153.097 1.38447 153.583 2.06629 153.92 2.96023C154.261 3.85038 154.432 4.92614 154.432 6.1875C154.432 7.45644 154.263 8.53977 153.926 9.4375C153.589 10.3314 153.102 11.0152 152.466 11.4886C151.83 11.9583 151.064 12.1932 150.17 12.1932ZM150.17 10.6761C150.958 10.6761 151.574 10.2917 152.017 9.52273C152.464 8.75379 152.688 7.64205 152.688 6.1875C152.688 5.22159 152.585 4.4053 152.381 3.73864C152.18 3.06818 151.89 2.56061 151.511 2.21591C151.136 1.86742 150.689 1.69318 150.17 1.69318C149.386 1.69318 148.771 2.07954 148.324 2.85227C147.877 3.625 147.652 4.73674 147.648 6.1875C147.648 7.1572 147.748 7.97727 147.949 8.64773C148.153 9.31439 148.443 9.82008 148.818 10.1648C149.193 10.5057 149.644 10.6761 150.17 10.6761ZM160.288 12.1591C159.576 12.1591 158.936 12.0227 158.368 11.75C157.804 11.4735 157.353 11.0947 157.016 10.6136C156.679 10.1326 156.499 9.58333 156.476 8.96591H158.18C158.222 9.46591 158.444 9.87689 158.845 10.1989C159.247 10.5208 159.728 10.6818 160.288 10.6818C160.735 10.6818 161.131 10.5795 161.476 10.375C161.824 10.1667 162.097 9.88068 162.294 9.51705C162.495 9.15341 162.595 8.73864 162.595 8.27273C162.595 7.79924 162.493 7.37689 162.288 7.00568C162.084 6.63447 161.802 6.3428 161.442 6.13068C161.086 5.91856 160.677 5.81061 160.214 5.80682C159.862 5.80682 159.508 5.86742 159.152 5.98864C158.796 6.10985 158.508 6.26894 158.288 6.46591L156.68 6.22727L157.334 0.363636H163.732V1.86932H158.794L158.425 5.125H158.493C158.72 4.9053 159.021 4.72159 159.396 4.57386C159.775 4.42614 160.18 4.35227 160.612 4.35227C161.321 4.35227 161.951 4.52083 162.504 4.85795C163.061 5.19508 163.499 5.6553 163.817 6.23864C164.139 6.81818 164.298 7.48485 164.294 8.23864C164.298 8.99242 164.127 9.66477 163.783 10.2557C163.442 10.8466 162.968 11.3125 162.362 11.6534C161.76 11.9905 161.069 12.1591 160.288 12.1591Z" fill="#57007B"/>
<rect x="26" y="5" width="111" height="3" fill="#E2E8F0"/>
<rect x="26" y="5" width="18" height="3" fill="#57007B"/>
</svg>
