<svg width="166" height="94" viewBox="0 0 166 94" fill="none" xmlns="http://www.w3.org/2000/svg">
<path fill-rule="evenodd" clip-rule="evenodd" d="M61.617 49.4621C60.627 48.9921 61.617 47.7861 62.087 47.4191C63.077 46.6861 64.383 46.4241 65.583 46.5191L65.479 48.6671C65.427 49.7671 65.166 49.2971 64.383 49.8721C63.548 50.4481 61.723 51.2861 61.618 49.4521L61.617 49.4621ZM98.61 72.3001C100.02 73.2001 102.627 75.8621 100.488 77.1701C98.453 79.0561 97.305 75.0751 95.478 74.5501C96.261 73.5021 97.252 72.5071 98.608 72.2981L98.61 72.3001ZM73.15 75.3381C71.48 75.6001 70.54 77.1181 69.133 77.9051C67.829 78.6911 67.307 77.6431 67.203 77.4351C66.993 77.3301 66.993 77.5401 66.681 77.2351C65.481 75.2971 67.933 73.8831 69.238 72.9401C71.064 72.5201 72.212 74.0921 73.151 75.3401L73.15 75.3381ZM106.49 49.2001C106.386 51.0331 104.56 50.1951 103.725 49.6201C102.942 49.0441 102.682 49.5151 102.629 48.4151L102.525 46.2671C103.725 46.1621 105.029 46.4241 106.021 47.1671C106.543 47.5871 107.481 48.7371 106.491 49.2101L106.49 49.2001Z" fill="#F6D2A2"/>
<path d="M62.61 50.7702C62.245 50.7702 61.567 50.6132 61.462 49.5652C61.149 49.3652 61.045 49.0952 61.045 48.9352C60.993 48.3052 61.671 47.5732 62.035 47.3112C62.87 46.6812 63.965 46.3682 65.113 46.3682H65.791V46.5252C65.843 47.1012 65.791 47.6772 65.739 48.2012C65.739 48.3582 65.739 48.5152 65.687 48.6712C65.635 49.4572 65.477 49.5712 65.113 49.7192C64.956 49.7712 64.8 49.8242 64.539 50.0332C64.279 50.1902 63.391 50.7662 62.609 50.7662L62.61 50.7702ZM65.114 46.6842C64.018 46.6842 63.027 46.9982 62.244 47.5842C61.879 47.8462 61.357 48.4842 61.409 48.8842C61.409 49.0412 61.513 49.1982 61.722 49.3042L61.826 49.3562V49.4612C61.878 50.2992 62.296 50.4042 62.609 50.4042C63.131 50.4042 63.861 50.0372 64.331 49.7242C64.644 49.5242 64.853 49.4622 65.009 49.4102C65.269 49.3052 65.322 49.3052 65.374 48.6772C65.374 48.5202 65.374 48.3632 65.426 48.2072C65.478 47.7372 65.478 47.2122 65.478 46.7402C65.321 46.6882 65.218 46.6882 65.113 46.6882L65.114 46.6842Z" fill="black"/>
<path fill-rule="evenodd" clip-rule="evenodd" d="M61.617 49.462C61.877 49.357 62.191 49.305 62.347 49.042L61.617 49.462Z" fill="#C6B198"/>
<path d="M61.617 49.62C61.565 49.62 61.46 49.568 61.46 49.515C61.408 49.41 61.46 49.315 61.564 49.315C61.616 49.315 61.668 49.263 61.668 49.263C61.878 49.158 62.085 49.106 62.19 48.949C62.242 48.897 62.347 48.844 62.45 48.897C62.502 48.949 62.554 49.054 62.502 49.159C62.3298 49.3712 62.0908 49.5189 61.824 49.578L61.72 49.63H61.616L61.617 49.62Z" fill="black"/>
<path fill-rule="evenodd" clip-rule="evenodd" d="M65.896 27.305C58.8 25.305 64.07 16.253 69.756 19.972L65.896 27.305Z" fill="#6AD7E5"/>
<path d="M66 27.5141L65.843 27.4621C62.191 26.4141 62.243 23.7951 62.347 23.0101C62.607 21.0101 64.487 18.9241 66.99 18.9241C67.98 18.9241 68.92 19.2381 69.86 19.8671L70.017 19.9721L66 27.5141ZM66.99 19.2901C64.642 19.2901 62.92 21.2281 62.66 23.0601C62.4 24.9461 63.547 26.4121 65.79 27.0931L69.494 20.0231C68.711 19.5531 67.877 19.2901 66.99 19.2901Z" fill="black"/>
<path fill-rule="evenodd" clip-rule="evenodd" d="M97.357 19.3C102.94 15.37 108.053 24.276 101.531 26.53L97.357 19.3Z" fill="#6AD7E5"/>
<path d="M101.478 26.7301L97.148 19.2301L97.305 19.1251C98.305 18.4451 99.288 18.0771 100.279 18.0771C102.679 18.0771 104.401 20.0771 104.766 22.0071C104.923 22.7931 105.079 25.4641 101.636 26.6071L101.479 26.7121L101.478 26.7301ZM97.618 19.3971L101.635 26.3641C103.67 25.6311 104.713 24.0591 104.4 22.1641C104.087 20.3841 102.47 18.5501 100.278 18.5501C99.391 18.4981 98.504 18.7501 97.618 19.3881V19.3971ZM99.4 77.8521C98.565 77.8521 97.835 77.0141 97.2 76.2281C96.626 75.5981 96.052 74.9282 95.426 74.7081L95.166 74.6561L95.323 74.4562C95.949 73.5561 96.993 72.4132 98.558 72.1511H98.61L98.662 72.2032C99.549 72.7792 101.479 74.4031 101.427 75.9231C101.427 76.4991 101.114 76.9711 100.54 77.3371C100.175 77.7041 99.81 77.8611 99.392 77.8611L99.4 77.8521ZM95.748 74.4471C96.374 74.7091 96.896 75.3902 97.418 75.9672C98.044 76.7532 98.67 77.4341 99.348 77.4341C99.661 77.4341 99.974 77.2771 100.288 76.9641H100.34C100.81 76.6501 101.07 76.2841 101.07 75.8121C101.07 74.6071 99.557 73.0881 98.513 72.4071C97.573 72.6691 96.635 73.3071 95.748 74.4501V74.4471ZM100.496 77.3272C100.444 77.3272 100.392 77.2752 100.339 77.2221C100.227 77.0058 100.14 76.7778 100.079 76.5421C99.922 76.1222 99.766 75.7041 99.453 75.3901C99.401 75.3382 99.401 75.2331 99.453 75.1281C99.505 75.0761 99.61 75.0761 99.713 75.1281C100.078 75.4951 100.287 75.9661 100.443 76.4282L100.703 77.0581C100.755 77.1631 100.703 77.2581 100.651 77.3201H100.494L100.496 77.3272Z" fill="black"/>
<path d="M68.243 78.3241C67.565 78.3241 67.2 77.7481 67.095 77.5381H67.043C66.886 77.5381 66.783 77.4861 66.573 77.2761V77.2241C65.425 75.3911 67.408 73.9761 68.713 73.0241L69.183 72.7101H69.287C69.487 72.6581 69.652 72.6581 69.861 72.6581C71.426 72.6581 72.418 74.0201 73.261 75.1201L73.521 75.4871L73.208 75.5391C72.208 75.6961 71.486 76.3251 70.756 76.9531C70.286 77.3731 69.816 77.7391 69.296 78.0531C68.879 78.2101 68.566 78.3151 68.253 78.3151L68.243 78.3241ZM67.095 77.2241C67.147 77.2241 67.199 77.2241 67.295 77.2761H67.347L67.399 77.3281C67.503 77.4851 67.764 77.9581 68.286 77.9581C68.546 77.9581 68.808 77.8531 69.069 77.6961C69.591 77.4341 70.069 77.0161 70.469 76.6481C71.147 76.0721 71.869 75.4431 72.817 75.1811C72.034 74.1331 71.095 72.9811 69.791 72.9811C69.634 72.9811 69.478 72.9811 69.321 73.0331L68.904 73.3471C67.547 74.2901 65.878 75.4951 66.869 77.0671C66.921 77.1721 66.973 77.2241 67.069 77.2241H67.095ZM67.199 77.5911C67.095 77.5911 66.999 77.4861 67.042 77.3911C67.094 76.8671 67.355 76.4911 67.616 76.0911C67.7569 75.8933 67.8791 75.6827 67.981 75.4621C68.033 75.3571 68.138 75.3571 68.181 75.3571C68.285 75.4091 68.285 75.5141 68.285 75.5571C68.181 75.8191 68.025 76.0271 67.868 76.2371C67.608 76.6041 67.398 76.9171 67.346 77.3371C67.346 77.5371 67.294 77.5991 67.189 77.5991L67.199 77.5911ZM66.209 24.8431C65.269 24.3731 64.592 23.6911 65.166 22.5911C65.688 21.5961 66.679 21.6911 67.618 22.1711L66.218 24.8411L66.209 24.8431ZM100.069 23.9001C101.009 23.4301 101.686 22.7481 101.112 21.6481C100.59 20.6531 99.599 20.7481 98.66 21.2281L100.06 23.8981L100.069 23.9001ZM105.547 50.5001C104.764 50.5001 103.877 49.9241 103.617 49.7671C103.357 49.6101 103.2 49.5051 103.043 49.4531C102.626 49.2961 102.521 49.1911 102.469 48.4051C102.469 48.2481 102.469 48.0911 102.417 47.9351C102.365 47.4111 102.313 46.8351 102.365 46.2591V46.0991H103.043C104.191 46.0991 105.286 46.4131 106.121 47.0421C106.486 47.3041 107.164 48.0371 107.121 48.6661C107.121 48.8661 107.017 49.1361 106.704 49.2961C106.6 50.3441 105.921 50.5011 105.556 50.5011L105.547 50.5001ZM102.677 46.4671L102.729 47.9341C102.729 48.0911 102.729 48.2481 102.781 48.4041C102.833 49.0341 102.885 49.0341 103.146 49.1371C103.303 49.1891 103.511 49.2941 103.824 49.4511C104.294 49.7651 105.024 50.1311 105.546 50.1311C105.859 50.1311 106.276 50.0261 106.329 49.1881V49.0831L106.433 49.0311C106.633 48.9261 106.746 48.8311 106.746 48.6111C106.798 48.1911 106.276 47.5631 105.911 47.3111C105.128 46.7351 104.085 46.4111 103.041 46.4111C102.937 46.4631 102.841 46.4631 102.676 46.4631L102.677 46.4671Z" fill="black"/>
<path fill-rule="evenodd" clip-rule="evenodd" d="M106.487 49.2C106.227 49.095 105.913 49.043 105.757 48.78L106.487 49.2Z" fill="#C6B198"/>
<path d="M106.487 49.4H106.435L106.331 49.348C106.071 49.243 105.809 49.191 105.653 48.928C105.601 48.876 105.601 48.728 105.705 48.666C105.757 48.614 105.915 48.614 105.965 48.718C106.069 48.875 106.278 48.918 106.487 49.032C106.539 49.032 106.591 49.084 106.591 49.084C106.695 49.136 106.748 49.241 106.695 49.284C106.642 49.327 106.538 49.389 106.485 49.389L106.487 49.4Z" fill="black"/>
<path fill-rule="evenodd" clip-rule="evenodd" d="M83.374 15.5701C90.47 15.5701 97.096 16.5651 100.591 23.4271C103.721 31.0751 102.574 39.3511 103.095 47.4701C103.512 54.4371 104.399 62.4501 101.217 68.8941C97.827 75.6511 89.374 77.3801 82.434 77.1181C76.956 76.9181 70.382 75.1181 67.251 70.0981C63.651 64.2311 65.321 55.4841 65.581 48.9361C65.894 41.1841 63.494 33.3791 66.051 25.8361C68.608 17.9361 75.703 16.1361 83.373 15.5691" fill="#6AD7E5"/>
<path d="M83.635 77.3301H82.33C80.19 77.2781 76.956 76.9101 73.773 75.6001C70.695 74.3431 68.451 72.5621 66.99 70.2051C64.068 65.4381 64.59 58.8911 65.06 53.0751L65.32 48.9371C65.424 46.2131 65.216 43.3851 64.955 40.7131C64.538 35.7891 64.12 30.7081 65.738 25.7831C66.99 22.1161 69.234 19.4971 72.625 17.8211C75.285 16.5211 78.573 15.7781 83.268 15.4211C90.258 15.3691 97.198 16.3641 100.694 23.3211C102.99 28.9261 102.99 34.9511 103.042 40.7641C103.042 42.9641 103.042 45.2161 103.199 47.4161C103.251 48.0961 103.303 48.7781 103.303 49.4591C103.72 55.8591 104.19 63.0791 101.268 68.9451C99.808 71.9311 97.251 74.1311 93.755 75.5451C90.938 76.6971 87.39 77.3251 83.633 77.3251L83.635 77.3301ZM83.375 15.7301C76.018 16.3061 68.818 17.9301 66.158 25.8921C64.541 30.7621 64.958 35.7921 65.375 40.6621C65.585 43.3861 65.845 46.1621 65.74 48.9381C65.688 50.2381 65.583 51.6081 65.48 53.0761C65.01 58.8381 64.49 65.3331 67.358 69.9961C68.558 71.9341 72.418 76.5441 82.384 76.9101H83.688C95.218 76.9101 99.498 71.7771 101.062 68.7401C103.932 62.9781 103.462 55.7401 103.097 49.4101C103.045 48.7301 102.993 48.0481 102.993 47.3671C102.889 45.1671 102.836 42.9151 102.836 40.7151C102.784 34.9531 102.784 28.9291 100.54 23.3771C98.975 20.2771 96.627 18.1911 93.392 16.9771C90.052 15.8771 86.296 15.7201 83.375 15.7201V15.7301Z" fill="black"/>
<path fill-rule="evenodd" clip-rule="evenodd" d="M84.626 25.1051C84.209 18.2431 94.696 16.3571 96.261 23.0621C97.983 30.5621 85.878 32.5421 84.626 25.1051ZM70.174 26.3001C68.557 18.3381 81.287 16.8701 81.757 24.6241C82.122 31.1191 71.844 32.7441 70.174 26.3001Z" fill="white"/>
<path d="M90.365 29.9761C88.017 29.9761 85.043 28.7191 84.417 25.1561C84.313 23.4801 84.834 21.9611 85.93 20.8081C87.13 19.5081 88.956 18.7651 90.834 18.7651C93.034 18.7651 95.634 19.9171 96.364 23.1131C96.781 24.8931 96.468 26.4651 95.477 27.7131C94.381 29.0751 92.451 29.9651 90.364 29.9651L90.365 29.9761ZM84.782 25.1061C85.042 26.5731 85.722 27.7261 86.817 28.5631C87.757 29.2961 89.06 29.6631 90.365 29.6631C92.295 29.6631 94.165 28.8251 95.217 27.5151C96.157 26.3631 96.417 24.8451 96.052 23.1671C95.374 20.1811 92.922 19.1341 90.835 19.1341C89.061 19.1341 87.339 19.8671 86.192 21.0721C85.192 22.1201 84.679 23.5341 84.792 25.1051L84.782 25.1061ZM89.322 24.7921C89.322 25.8401 88.539 26.6781 87.6 26.6781C86.661 26.6781 85.878 25.8401 85.878 24.7921C85.878 23.7441 86.661 22.9061 87.6 22.9061C88.539 22.9061 89.322 23.7441 89.322 24.7921ZM75.652 30.6051C73.409 30.6051 70.8 29.5051 69.965 26.3621C69.6 24.5291 69.965 22.8621 71.008 21.5951C72.156 20.1811 74.034 19.3431 76.068 19.3431C78.781 19.3431 81.651 20.9671 81.868 24.6431C81.972 26.1631 81.503 27.5231 80.468 28.6231C79.372 29.8281 77.546 30.6231 75.668 30.6231L75.652 30.6051ZM76.07 19.7001C74.14 19.7001 72.366 20.4861 71.27 21.7951C70.27 23.0001 69.966 24.5191 70.33 26.2471C71.06 29.1801 73.565 30.2271 75.652 30.2271C77.426 30.2271 79.148 29.5471 80.252 28.3411C80.7198 27.8483 81.0778 27.262 81.3026 26.6209C81.5273 25.9797 81.6137 25.2981 81.556 24.6211C81.452 22.3691 79.939 19.6971 76.078 19.6971L76.07 19.7001ZM74.766 25.2521C74.766 26.3001 73.983 27.1381 73.044 27.1381C72.105 27.1381 71.322 26.3001 71.322 25.2521C71.322 24.2041 72.105 23.3661 73.044 23.3661C73.983 23.3661 74.766 24.2041 74.766 25.2521Z" fill="black"/>
<path fill-rule="evenodd" clip-rule="evenodd" d="M86.087 34.0001C86.087 34.9431 86.297 36.0431 86.139 37.1001C85.879 37.5701 85.409 37.6241 84.991 37.7801C84.417 37.6751 83.948 37.3101 83.687 36.7851C83.53 35.6331 83.739 34.4801 83.791 33.3281L86.087 34.0081V34.0001Z" fill="white"/>
<path d="M84.99 38C84.312 37.895 83.79 37.476 83.53 36.9C83.426 36.062 83.478 35.276 83.53 34.5C83.582 34.133 83.582 33.767 83.582 33.4V33.2L86.242 34.0379V34.143C86.242 34.457 86.294 34.773 86.294 35.138C86.346 35.818 86.398 36.552 86.294 37.233V37.285C86.084 37.705 85.72 37.809 85.354 37.965C85.25 37.913 85.144 37.9649 84.989 38.0169L84.99 38ZM83.842 36.743C84.052 37.213 84.468 37.529 84.938 37.643C85.042 37.591 85.148 37.5909 85.198 37.5379C85.511 37.4329 85.772 37.338 85.928 37.068C86.032 36.438 85.98 35.768 85.928 35.068C85.928 34.754 85.876 34.4379 85.876 34.1679L83.893 33.5379C83.893 33.8519 83.841 34.168 83.841 34.438C83.789 35.276 83.737 36.008 83.841 36.743H83.842Z" fill="black"/>
<path fill-rule="evenodd" clip-rule="evenodd" d="M74.2 25.68C74.2 25.942 74 26.15 73.783 26.15C73.566 26.15 73.366 25.95 73.366 25.68C73.366 25.41 73.566 25.21 73.783 25.21C74.043 25.21 74.2 25.41 74.2 25.68ZM88.8 25.2C88.8 25.462 88.643 25.67 88.383 25.67C88.183 25.67 87.966 25.47 87.966 25.2C87.966 24.93 88.123 24.73 88.383 24.73C88.583 24.73 88.8 24.93 88.8 25.2ZM81.078 33.905C80.295 35.738 81.495 39.457 83.582 36.735C83.425 35.583 83.634 34.43 83.686 33.278L81.086 33.908L81.078 33.905Z" fill="white"/>
<path d="M82.174 37.8859C81.809 37.8859 81.444 37.6859 81.184 37.2559C80.61 36.4179 80.506 34.8559 80.924 33.8509L80.976 33.7459L83.846 33.0129V33.2129L83.794 34.3649C83.742 35.1509 83.69 35.8849 83.794 36.6699V36.7219L83.742 36.7739C83.22 37.5069 82.699 37.8739 82.177 37.8739L82.174 37.8859ZM81.234 34.0619C80.921 34.9619 81.024 36.3669 81.494 37.0479C81.704 37.3619 81.911 37.5179 82.172 37.5179C82.537 37.5179 82.955 37.2039 83.372 36.6799C83.268 35.8939 83.32 35.1099 83.424 34.3749L83.476 33.4749L81.233 34.0509L81.234 34.0619Z" fill="black"/>
<path fill-rule="evenodd" clip-rule="evenodd" d="M81.34 30.3431C79.93 30.4481 78.783 32.1761 79.514 33.4861C80.504 35.2661 82.644 33.3291 84.001 33.4861C85.566 33.5381 86.818 35.1621 88.071 33.8001C89.481 32.2801 87.445 30.8141 85.931 30.1331L81.341 30.3331L81.34 30.3431Z" fill="#F6D2A2"/>
<path d="M86.974 34.5331C86.504 34.5331 86.034 34.3331 85.564 34.1131C85.094 33.8931 84.574 33.6931 83.999 33.6931H83.842C83.425 33.6931 82.955 33.8501 82.432 34.0601C81.858 34.2601 81.284 34.4271 80.762 34.4271C80.136 34.4271 79.666 34.1651 79.352 33.5891C78.987 32.9591 79.039 32.2271 79.404 31.5461C79.821 30.7601 80.552 30.2891 81.334 30.1841L86.03 29.9841C87.178 30.4541 88.482 31.3461 88.743 32.3841C88.847 32.9081 88.691 33.4321 88.273 33.9041C87.855 34.3761 87.438 34.5341 86.969 34.5341L86.974 34.5331ZM84.052 33.3811C84.626 33.3811 85.2 33.6431 85.722 33.8511C86.192 34.0511 86.609 34.2181 87.026 34.2181C87.391 34.2181 87.704 34.0611 88.016 33.7481C88.1766 33.5951 88.2983 33.4059 88.3708 33.1963C88.4434 32.9866 88.4647 32.7627 88.433 32.5431C88.223 31.6431 86.973 30.8131 85.981 30.3951L81.441 30.5951C80.763 30.6471 80.137 31.1191 79.771 31.7471C79.458 32.3231 79.458 32.9521 79.719 33.4771C79.979 33.9471 80.293 34.1571 80.815 34.1571C81.285 34.1571 81.805 33.9571 82.328 33.7901C82.902 33.5901 83.371 33.4231 83.893 33.4231C83.893 33.3181 83.945 33.3181 84.05 33.3711L84.052 33.3811Z" fill="#231F20"/>
<path d="M81.183 30.3001C81.079 27.8381 85.773 27.5241 86.296 29.5671C86.87 31.6621 81.392 32.1341 81.183 30.3001Z" fill="black"/>
</svg>
