<svg width="117" height="30" viewBox="0 0 117 30" fill="none" xmlns="http://www.w3.org/2000/svg">
<path d="M44.304 26.16C43.712 26.16 43.104 25.976 42.48 25.608C41.872 25.24 41.248 24.64 40.608 23.808C40.112 23.152 39.752 22.4 39.528 21.552C39.32 20.704 39.216 19.864 39.216 19.032C39.216 18.632 39.24 18.24 39.288 17.856C39.352 17.424 39.472 16.936 39.648 16.392C39.824 15.832 40.008 15.376 40.2 15.024C40.264 14.896 40.352 14.768 40.464 14.64C40.592 14.512 40.672 14.448 40.704 14.448C40.72 14.448 40.728 14.464 40.728 14.496C40.728 14.56 40.648 14.752 40.488 15.072C40.248 15.552 40.072 16.064 39.96 16.608C39.848 17.136 39.792 17.68 39.792 18.24C39.792 19.264 39.952 20.272 40.272 21.264C40.608 22.272 41.048 23.136 41.592 23.856C42.104 24.544 42.6 25.04 43.08 25.344C43.576 25.648 44.04 25.8 44.472 25.8C45.112 25.8 45.68 25.552 46.176 25.056C46.688 24.56 47.112 23.952 47.448 23.232C47.688 22.736 47.888 22.08 48.048 21.264C48.208 20.464 48.328 19.568 48.408 18.576C48.504 17.568 48.552 16.528 48.552 15.456C48.552 14.368 48.504 13.296 48.408 12.24C48.312 11.184 48.152 10.192 47.928 9.264C47.72 8.336 47.456 7.536 47.136 6.864C46.816 6.192 46.424 5.712 45.96 5.424C45.832 5.344 45.712 5.304 45.6 5.304C45.472 5.304 45.344 5.344 45.216 5.424C45.104 5.504 45 5.608 44.904 5.736C44.696 6.024 44.544 6.424 44.448 6.936C44.352 7.432 44.304 7.968 44.304 8.544C44.304 9.216 44.36 9.896 44.472 10.584C44.584 11.256 44.736 11.856 44.928 12.384C45.136 12.896 45.368 13.256 45.624 13.464C45.768 13.592 45.904 13.656 46.032 13.656C46.144 13.656 46.232 13.632 46.296 13.584C46.36 13.52 46.424 13.488 46.488 13.488C46.6 13.488 46.616 13.536 46.536 13.632C46.456 13.712 46.336 13.792 46.176 13.872C46.016 13.952 45.84 13.984 45.648 13.968C45.216 13.92 44.856 13.68 44.568 13.248C44.28 12.816 44.064 12.272 43.92 11.616C43.776 10.944 43.704 10.256 43.704 9.552C43.704 8.8 43.776 8.08 43.92 7.392C44.08 6.704 44.312 6.144 44.616 5.712C44.936 5.28 45.32 5.064 45.768 5.064C45.992 5.064 46.208 5.112 46.416 5.208C47.024 5.464 47.52 5.96 47.904 6.696C48.304 7.416 48.608 8.28 48.816 9.288C49.04 10.28 49.192 11.32 49.272 12.408C49.368 13.496 49.416 14.544 49.416 15.552C49.416 16.368 49.392 17.112 49.344 17.784C49.312 18.456 49.272 19 49.224 19.416C49.128 20.296 48.936 21.136 48.648 21.936C48.36 22.752 48 23.472 47.568 24.096C47.136 24.736 46.64 25.24 46.08 25.608C45.52 25.976 44.928 26.16 44.304 26.16ZM49.5356 24.48C49.3756 24.48 49.2476 24.432 49.1516 24.336C49.0396 24.24 49.0236 24.128 49.1036 24C49.3276 23.664 49.5436 23.184 49.7516 22.56C49.9436 21.952 50.1116 21.312 50.2556 20.64C50.4156 19.968 50.5436 19.36 50.6396 18.816C50.7516 18.256 50.8316 17.864 50.8796 17.64C50.5916 17.368 50.4476 17.064 50.4476 16.728C50.4476 16.472 50.5036 16.256 50.6156 16.08C50.7436 15.904 50.8396 15.824 50.9036 15.84C50.9356 15.84 50.9756 15.856 51.0236 15.888C51.0876 15.904 51.1196 15.928 51.1196 15.96C51.2156 15.208 51.2956 14.464 51.3596 13.728C51.4236 12.976 51.4556 12.288 51.4556 11.664C51.4556 11.152 51.4316 10.696 51.3836 10.296C51.3356 9.896 51.2636 9.576 51.1676 9.336C51.0716 9.096 51.0236 8.912 51.0236 8.784C51.0236 8.608 51.0716 8.52 51.1676 8.52C51.2796 8.52 51.3676 8.592 51.4316 8.736C51.6076 9.088 51.7356 9.64 51.8156 10.392C51.9116 11.144 51.9596 12 51.9596 12.96C51.9596 13.616 51.9436 14.312 51.9116 15.048C51.8796 15.768 51.8236 16.488 51.7436 17.208C52.0316 16.952 52.3276 16.704 52.6316 16.464C52.9356 16.208 53.1996 15.944 53.4236 15.672V15.648C53.4236 15.616 53.4076 15.584 53.3756 15.552C53.3596 15.52 53.3516 15.472 53.3516 15.408C53.3516 15.296 53.4316 15.16 53.5916 15C53.7516 14.84 53.9596 14.616 54.2156 14.328C54.4876 14.024 54.7676 13.752 55.0556 13.512C55.3436 13.256 55.6076 13.136 55.8476 13.152C56.0396 13.152 56.1356 13.216 56.1356 13.344C56.1356 13.488 55.9996 13.704 55.7276 13.992C55.4556 14.28 55.1276 14.584 54.7436 14.904C54.3756 15.224 54.0316 15.52 53.7116 15.792C53.4076 16.048 53.2076 16.224 53.1116 16.32L52.1996 17.328L51.7196 17.832C51.9276 18.36 52.1676 18.88 52.4396 19.392C52.7116 19.904 53.0156 20.328 53.3516 20.664C53.7036 21 54.0636 21.168 54.4316 21.168C54.8156 21.168 55.2076 20.936 55.6076 20.472C55.8796 20.136 56.1116 19.76 56.3036 19.344C56.4956 18.928 56.6556 18.616 56.7836 18.408C56.8636 18.248 56.9436 18.144 57.0236 18.096C57.1036 18.032 57.1676 18 57.2156 18C57.3276 18 57.3676 18.08 57.3356 18.24C57.2716 18.448 57.1596 18.712 56.9996 19.032C56.8396 19.352 56.6796 19.656 56.5196 19.944C56.3756 20.216 56.2636 20.408 56.1836 20.52C55.8796 20.968 55.5756 21.296 55.2716 21.504C54.9676 21.712 54.6716 21.816 54.3836 21.816C54.0156 21.816 53.6556 21.68 53.3036 21.408C52.9516 21.136 52.6236 20.784 52.3196 20.352C52.0316 19.92 51.7676 19.464 51.5276 18.984C51.3516 20.2 51.1356 21.288 50.8796 22.248C50.6236 23.224 50.3436 23.896 50.0396 24.264C49.8956 24.408 49.7276 24.48 49.5356 24.48ZM63.1269 22.128C62.7429 22.128 62.4549 21.96 62.2629 21.624C62.0709 21.304 61.9749 20.896 61.9749 20.4C61.9749 20.048 62.0469 19.608 62.1909 19.08C62.3349 18.552 62.5349 18 62.7909 17.424C63.0469 16.848 63.3349 16.312 63.6549 15.816C63.9749 15.304 64.3029 14.896 64.6389 14.592C64.9909 14.272 65.3349 14.112 65.6709 14.112C65.9429 14.112 66.1349 14.216 66.2469 14.424C66.3749 14.616 66.4389 14.824 66.4389 15.048C66.4389 15.24 66.3989 15.416 66.3189 15.576C66.2549 15.72 66.1589 15.792 66.0309 15.792C65.9029 15.792 65.8069 15.736 65.7429 15.624C65.6949 15.496 65.6469 15.368 65.5989 15.24C65.5669 15.112 65.4789 15.048 65.3349 15.048C65.0469 15.048 64.7589 15.232 64.4709 15.6C64.1829 15.968 63.9189 16.432 63.6789 16.992C63.4389 17.552 63.2469 18.136 63.1029 18.744C62.9589 19.336 62.8869 19.864 62.8869 20.328C62.8869 20.664 62.9269 20.928 63.0069 21.12C63.1029 21.328 63.2549 21.432 63.4629 21.432C63.7349 21.432 64.0069 21.264 64.2789 20.928C64.5669 20.576 64.8469 20.128 65.1189 19.584C65.3909 19.024 65.6389 18.44 65.8629 17.832C66.1029 17.224 66.3029 16.656 66.4629 16.128C66.6389 15.584 66.7749 15.152 66.8709 14.832C66.9989 13.712 67.1509 12.584 67.3269 11.448C67.5189 10.312 67.7989 9.208 68.1669 8.136C68.2149 7.96 68.2869 7.808 68.3829 7.68C68.4949 7.552 68.6069 7.488 68.7189 7.488C68.8469 7.488 68.9509 7.576 69.0309 7.752C69.1269 7.928 69.1749 8.128 69.1749 8.352C69.1749 8.528 69.1429 8.712 69.0789 8.904C69.0149 9.096 68.9349 9.352 68.8389 9.672C68.7269 10.056 68.5829 10.568 68.4069 11.208C68.2469 11.832 68.0789 12.544 67.9029 13.344C67.7269 14.128 67.5749 14.968 67.4469 15.864C67.3349 16.744 67.2789 17.624 67.2789 18.504C67.2789 19.176 67.3269 19.648 67.4229 19.92C67.5189 20.192 67.6469 20.328 67.8069 20.328C67.9829 20.328 68.1749 20.216 68.3829 19.992C68.6069 19.768 68.8229 19.496 69.0309 19.176C69.2549 18.856 69.4549 18.536 69.6309 18.216C69.8069 17.88 69.9429 17.616 70.0389 17.424C70.2149 17.072 70.3509 16.896 70.4469 16.896C70.5109 16.896 70.5429 16.968 70.5429 17.112C70.5429 17.224 70.5189 17.344 70.4709 17.472C70.3749 17.68 70.3109 17.84 70.2789 17.952C70.2469 18.048 70.2069 18.144 70.1589 18.24C70.1269 18.336 70.0469 18.488 69.9189 18.696C69.8069 18.888 69.6309 19.152 69.3909 19.488C69.1509 19.808 68.8789 20.104 68.5749 20.376C68.2709 20.632 67.9669 20.76 67.6629 20.76C67.3589 20.76 67.1269 20.632 66.9669 20.376C66.8229 20.12 66.7269 19.792 66.6789 19.392C66.6469 18.976 66.6309 18.552 66.6309 18.12C66.6309 17.592 66.6549 17.032 66.7029 16.44C66.5909 16.824 66.4389 17.28 66.2469 17.808C66.0549 18.32 65.8389 18.84 65.5989 19.368C65.3589 19.896 65.1029 20.376 64.8309 20.808C64.6069 21.16 64.3589 21.464 64.0869 21.72C63.8149 21.992 63.4949 22.128 63.1269 22.128ZM71.6663 21.312C71.0903 21.312 70.5863 20.976 70.1543 20.304C69.7383 19.616 69.5303 18.536 69.5303 17.064C69.5303 16.104 69.6503 15.336 69.8903 14.76C70.1303 14.168 70.4263 13.736 70.7783 13.464C71.1303 13.192 71.4663 13.056 71.7863 13.056C72.1063 13.056 72.3783 13.168 72.6023 13.392C72.8263 13.6 72.9383 13.904 72.9383 14.304C72.9383 14.688 72.8263 15.096 72.6023 15.528C72.3783 15.944 72.1063 16.328 71.7863 16.68C71.4823 17.016 71.1783 17.24 70.8743 17.352C70.8103 17.384 70.7303 17.4 70.6343 17.4C70.5703 17.4 70.5383 17.376 70.5383 17.328C70.5383 17.2 70.6663 17.056 70.9223 16.896C71.2423 16.672 71.5463 16.336 71.8343 15.888C72.1223 15.424 72.2663 15.016 72.2663 14.664C72.2663 14.456 72.2183 14.296 72.1223 14.184C72.0263 14.056 71.9143 13.992 71.7863 13.992C71.5463 13.992 71.2823 14.184 70.9943 14.568C70.7223 14.936 70.5223 15.576 70.3943 16.488C70.3623 16.744 70.3303 16.992 70.2983 17.232C70.2823 17.456 70.2743 17.68 70.2743 17.904C70.2743 18.8 70.4103 19.504 70.6823 20.016C70.9543 20.512 71.3143 20.76 71.7623 20.76C72.1463 20.76 72.5783 20.536 73.0583 20.088C73.5383 19.624 74.0103 18.904 74.4743 17.928C74.5863 17.672 74.7143 17.544 74.8583 17.544C74.9543 17.544 75.0023 17.608 75.0023 17.736C75.0023 17.848 74.9703 17.968 74.9062 18.096C74.4903 19.12 73.9863 19.912 73.3943 20.472C72.8023 21.032 72.2263 21.312 71.6663 21.312ZM76.3761 22.608C76.2801 22.608 76.1841 22.552 76.0881 22.44C76.0081 22.328 75.9521 22.152 75.9201 21.912C75.9041 21.848 75.8961 21.752 75.8961 21.624C75.8961 21.512 75.8961 21.376 75.8961 21.216C75.8961 20.896 75.8961 20.576 75.8961 20.256C75.9121 19.92 75.9201 19.696 75.9201 19.584C75.9201 18.912 75.8881 18.232 75.8241 17.544C75.7601 16.856 75.6321 16.28 75.4401 15.816C75.2481 15.352 74.9441 15.12 74.5281 15.12C74.2721 15.12 74.0321 15.216 73.8081 15.408C73.6001 15.584 73.4241 15.768 73.2801 15.96C73.1201 16.152 73.0081 16.248 72.9441 16.248C72.8801 16.248 72.8481 16.216 72.8481 16.152C72.8481 16.072 72.9201 15.944 73.0641 15.768C73.2081 15.576 73.3121 15.448 73.3761 15.384C73.6161 15.144 73.8801 14.928 74.1681 14.736C74.4721 14.544 74.7521 14.448 75.0081 14.448C75.4081 14.448 75.7201 14.672 75.9441 15.12C76.1681 15.552 76.3281 16.104 76.4241 16.776C76.5201 17.432 76.5681 18.096 76.5681 18.768C76.5681 19.104 76.5601 19.432 76.5441 19.752C76.5281 20.056 76.5041 20.336 76.4721 20.592C76.6161 20.192 76.8001 19.72 77.0241 19.176C77.2481 18.616 77.5041 18.048 77.7921 17.472C78.0961 16.88 78.4161 16.328 78.7521 15.816C79.0881 15.304 79.4481 14.88 79.8321 14.544C80.0561 14.352 80.2241 14.256 80.3361 14.256C80.4321 14.256 80.4801 14.304 80.4801 14.4C80.4801 14.56 80.3441 14.76 80.0721 15C79.5121 15.496 79.0401 16.064 78.6561 16.704C78.2721 17.344 77.9601 18 77.7201 18.672C77.4961 19.344 77.3281 19.976 77.2161 20.568C77.1041 21.16 77.0321 21.648 77.0001 22.032C76.9841 22.144 76.9121 22.264 76.7841 22.392C76.6561 22.536 76.5201 22.608 76.3761 22.608ZM81.8381 21.312C81.2621 21.312 80.7581 20.976 80.3261 20.304C79.9101 19.616 79.7021 18.536 79.7021 17.064C79.7021 16.104 79.8221 15.336 80.0621 14.76C80.3021 14.168 80.5981 13.736 80.9501 13.464C81.3021 13.192 81.6381 13.056 81.9581 13.056C82.2781 13.056 82.5501 13.168 82.7741 13.392C82.9981 13.6 83.1101 13.904 83.1101 14.304C83.1101 14.688 82.9981 15.096 82.7741 15.528C82.5501 15.944 82.2781 16.328 81.9581 16.68C81.6541 17.016 81.3501 17.24 81.0461 17.352C80.9821 17.384 80.9021 17.4 80.8061 17.4C80.7421 17.4 80.7101 17.376 80.7101 17.328C80.7101 17.2 80.8381 17.056 81.0941 16.896C81.4141 16.672 81.7181 16.336 82.0061 15.888C82.2941 15.424 82.4381 15.016 82.4381 14.664C82.4381 14.456 82.3901 14.296 82.2941 14.184C82.1981 14.056 82.0861 13.992 81.9581 13.992C81.7181 13.992 81.4541 14.184 81.1661 14.568C80.8941 14.936 80.6941 15.576 80.5661 16.488C80.5341 16.744 80.5021 16.992 80.4701 17.232C80.4541 17.456 80.4461 17.68 80.4461 17.904C80.4461 18.8 80.5821 19.504 80.8541 20.016C81.1261 20.512 81.4861 20.76 81.9341 20.76C82.3181 20.76 82.7501 20.536 83.2301 20.088C83.7101 19.624 84.1821 18.904 84.6461 17.928C84.7581 17.672 84.8861 17.544 85.0301 17.544C85.1261 17.544 85.1741 17.608 85.1741 17.736C85.1741 17.848 85.1421 17.968 85.0781 18.096C84.6621 19.12 84.1581 19.912 83.5661 20.472C82.9741 21.032 82.3981 21.312 81.8381 21.312ZM88.1319 24.816C87.9239 24.816 87.7239 24.736 87.5319 24.576C87.3559 24.416 87.2039 24.256 87.0759 24.096C86.5639 23.504 86.1319 22.72 85.7799 21.744C85.4439 20.768 85.1879 19.696 85.0119 18.528C84.8359 17.344 84.7479 16.144 84.7479 14.928C84.7479 13.792 84.8199 12.688 84.9639 11.616C85.1239 10.544 85.3639 9.568 85.6839 8.688C86.0039 7.808 86.4039 7.104 86.8839 6.576C87.5079 5.872 88.1079 5.52 88.6839 5.52C89.0359 5.52 89.3159 5.68 89.5239 6C89.7479 6.304 89.8599 6.792 89.8599 7.464C89.8599 8.104 89.7319 8.92 89.4759 9.912C89.2359 10.888 88.8199 12.056 88.2279 13.416C88.0199 13.864 87.7959 14.312 87.5559 14.76C87.3319 15.208 87.0919 15.68 86.8359 16.176C86.7399 16.368 86.6599 16.464 86.5959 16.464C86.5639 16.464 86.5479 16.432 86.5479 16.368C86.5479 16.24 86.6039 16.072 86.7159 15.864C88.1719 13.128 88.8999 10.408 88.8999 7.704C88.8999 6.632 88.6759 6.096 88.2279 6.096C87.9079 6.096 87.5319 6.408 87.0999 7.032C86.5079 7.912 86.0999 8.96 85.8759 10.176C85.6519 11.376 85.5399 12.592 85.5399 13.824C85.5399 14.752 85.5799 15.656 85.6599 16.536C85.7399 17.4 85.8359 18.184 85.9479 18.888C85.9959 19.192 86.0679 19.6 86.1639 20.112C86.2599 20.624 86.3879 21.16 86.5479 21.72C86.7079 22.296 86.8839 22.816 87.0759 23.28C87.2839 23.76 87.5079 24.104 87.7479 24.312C87.8119 24.36 87.8759 24.408 87.9399 24.456C88.0199 24.52 88.1079 24.56 88.2039 24.576C88.3479 24.576 88.4199 24.616 88.4199 24.696C88.4199 24.776 88.3239 24.816 88.1319 24.816ZM90.8672 21.84C90.3392 21.84 89.9072 21.68 89.5712 21.36C89.2512 21.04 89.0112 20.632 88.8512 20.136C88.6912 19.624 88.6112 19.088 88.6112 18.528C88.6112 18.192 88.6432 17.872 88.7072 17.568C88.7712 17.264 88.8352 17.016 88.8992 16.824C88.8832 16.712 88.8672 16.6 88.8512 16.488C88.8512 16.36 88.8512 16.232 88.8512 16.104C88.8512 15.64 88.8992 15.136 88.9952 14.592C89.0912 14.048 89.2432 13.528 89.4512 13.032C89.6752 12.536 89.9472 12.136 90.2672 11.832C90.6032 11.512 91.0112 11.352 91.4912 11.352C91.9072 11.352 92.3152 11.528 92.7152 11.88C93.1152 12.216 93.4672 12.712 93.7712 13.368C93.9472 13.736 94.0672 14.136 94.1312 14.568C94.2112 14.984 94.2512 15.408 94.2512 15.84C94.2512 16.432 94.1872 17.024 94.0592 17.616C93.9472 18.192 93.7792 18.736 93.5552 19.248C93.3952 19.616 93.1792 20.008 92.9072 20.424C92.6512 20.824 92.3552 21.16 92.0192 21.432C91.6832 21.704 91.2992 21.84 90.8672 21.84ZM90.9872 21.312C91.5312 21.312 92.0352 20.936 92.4992 20.184C92.8352 19.656 93.0752 19.056 93.2192 18.384C93.3632 17.696 93.4352 17.008 93.4352 16.32C93.4352 15.808 93.4032 15.312 93.3392 14.832C93.2752 14.352 93.1792 13.888 93.0512 13.44C92.9392 13.04 92.7472 12.688 92.4752 12.384C92.2192 12.064 91.8512 11.928 91.3712 11.976C90.9872 12.008 90.6512 12.2 90.3632 12.552C90.0752 12.904 89.8512 13.304 89.6912 13.752C89.5472 14.184 89.4752 14.56 89.4752 14.88C89.4752 15.056 89.4992 15.192 89.5472 15.288C89.5952 15.16 89.7152 14.952 89.9072 14.664C90.0992 14.36 90.3152 14.088 90.5552 13.848C90.7952 13.592 91.0192 13.464 91.2272 13.464C91.4032 13.464 91.4912 13.536 91.4912 13.68C91.2832 13.696 91.0752 13.824 90.8672 14.064C90.6752 14.288 90.4912 14.56 90.3152 14.88C90.1552 15.2 90.0192 15.52 89.9072 15.84C89.8112 16.144 89.7392 16.384 89.6912 16.56C89.6752 16.624 89.6512 16.704 89.6192 16.8C89.5872 16.896 89.5712 16.992 89.5712 17.088C89.5712 17.2 89.6352 17.384 89.7632 17.64C89.8912 17.88 90.0992 18.104 90.3872 18.312C90.6752 18.52 91.0672 18.624 91.5632 18.624C91.7072 18.624 91.8592 18.608 92.0192 18.576C92.1792 18.544 92.3312 18.512 92.4752 18.48L92.6432 18.432C92.6752 18.432 92.6912 18.448 92.6912 18.48C92.6912 18.528 92.6352 18.592 92.5232 18.672C92.4272 18.736 92.3392 18.784 92.2592 18.816C92.0352 18.928 91.7872 18.984 91.5152 18.984C91.1152 18.984 90.7312 18.864 90.3632 18.624C90.0112 18.368 89.6992 18.08 89.4272 17.76C89.4112 17.888 89.4032 18.016 89.4032 18.144C89.4032 18.256 89.4032 18.368 89.4032 18.48C89.4032 19.408 89.5632 20.112 89.8832 20.592C90.2032 21.072 90.5712 21.312 90.9872 21.312ZM95.0783 28.824C94.8383 28.824 94.6463 28.664 94.5023 28.344C94.3582 28.04 94.2542 27.672 94.1902 27.24C94.1102 26.808 94.0702 26.408 94.0702 26.04C94.0702 25.864 94.0782 25.608 94.0942 25.272C94.1102 24.936 94.1342 24.576 94.1662 24.192C94.1982 23.808 94.2302 23.448 94.2622 23.112C94.2942 22.776 94.3182 22.52 94.3342 22.344C94.4783 21.256 94.6943 20.208 94.9823 19.2C95.2703 18.176 95.5823 17.176 95.9183 16.2C95.9343 16.168 95.9503 16.12 95.9663 16.056C95.9983 15.992 96.0223 15.96 96.0383 15.96V15.888C95.8783 15.952 95.6703 16.104 95.4143 16.344C95.1743 16.584 94.9983 16.768 94.8863 16.896C94.7743 17.008 94.6703 17.128 94.5743 17.256C94.4783 17.368 94.3662 17.424 94.2382 17.424C94.1102 17.424 94.0462 17.352 94.0462 17.208C94.0462 17.032 94.1422 16.856 94.3342 16.68C94.5103 16.488 94.7103 16.312 94.9343 16.152C95.1583 15.976 95.3983 15.816 95.6543 15.672C95.9263 15.528 96.1183 15.424 96.2303 15.36C96.2783 15.328 96.3103 15.288 96.3263 15.24C96.3583 15.192 96.3823 15.144 96.3983 15.096C96.5103 14.92 96.6223 14.752 96.7343 14.592C96.8623 14.432 97.0303 14.32 97.2383 14.256C97.3823 14.272 97.5423 14.304 97.7183 14.352C97.8943 14.4 97.9983 14.512 98.0303 14.688C98.0303 14.752 98.0463 14.784 98.0783 14.784V14.808C98.1583 14.808 98.2543 14.8 98.3663 14.784C98.4943 14.752 98.6383 14.736 98.7983 14.736C99.4223 14.736 99.9263 14.896 100.31 15.216C100.694 15.536 100.886 15.96 100.886 16.488C100.886 16.984 100.742 17.52 100.454 18.096C100.166 18.656 99.8543 19.112 99.5183 19.464C98.9903 19.992 98.4303 20.456 97.8383 20.856C97.2623 21.24 96.7663 21.432 96.3503 21.432C96.0943 21.432 95.9183 21.36 95.8223 21.216C95.7423 21.088 95.7023 20.928 95.7023 20.736C95.7023 20.464 95.8223 20.192 96.0623 19.92C96.3023 19.648 96.5423 19.416 96.7823 19.224C97.0543 19 97.3343 18.792 97.6223 18.6C97.9263 18.408 98.1823 18.248 98.3903 18.12C98.5023 18.04 98.6063 17.968 98.7023 17.904C98.8143 17.84 98.9103 17.808 98.9903 17.808C99.0383 17.808 99.0623 17.832 99.0623 17.88C99.0623 17.912 98.9663 17.992 98.7743 18.12C98.5983 18.248 98.4463 18.36 98.3183 18.456C98.2223 18.536 98.0543 18.68 97.8143 18.888C97.5743 19.08 97.3183 19.304 97.0463 19.56C96.7903 19.8 96.5663 20.048 96.3743 20.304C96.1823 20.56 96.0863 20.784 96.0863 20.976C96.3423 20.976 96.6223 20.872 96.9263 20.664C97.2463 20.44 97.5583 20.184 97.8623 19.896C98.1823 19.608 98.4543 19.368 98.6783 19.176C98.8863 18.984 99.1343 18.72 99.4223 18.384C99.7103 18.048 99.9663 17.688 100.19 17.304C100.414 16.92 100.526 16.568 100.526 16.248C100.526 15.832 100.366 15.528 100.046 15.336C99.7423 15.128 99.3743 15.024 98.9423 15.024C98.7983 15.024 98.6143 15.04 98.3903 15.072C98.1663 15.104 98.0303 15.136 97.9823 15.168C97.6303 15.712 97.2943 16.264 96.9743 16.824C96.6543 17.384 96.3583 17.96 96.0863 18.552C95.6383 19.512 95.2783 20.488 95.0063 21.48C94.7503 22.472 94.5823 23.544 94.5023 24.696C94.4863 24.968 94.4623 25.256 94.4303 25.56C94.4143 25.864 94.4143 26.168 94.4303 26.472C94.4463 26.632 94.4783 26.888 94.5263 27.24C94.5743 27.592 94.6543 27.912 94.7663 28.2C94.8783 28.488 95.0303 28.632 95.2223 28.632C95.2383 28.632 95.2703 28.632 95.3183 28.632C95.3663 28.632 95.3903 28.64 95.3903 28.656V28.728C95.2783 28.792 95.1743 28.824 95.0783 28.824ZM103.213 21.312C102.637 21.312 102.133 20.976 101.701 20.304C101.285 19.616 101.077 18.536 101.077 17.064C101.077 16.104 101.197 15.336 101.437 14.76C101.677 14.168 101.973 13.736 102.325 13.464C102.677 13.192 103.013 13.056 103.333 13.056C103.653 13.056 103.925 13.168 104.149 13.392C104.373 13.6 104.485 13.904 104.485 14.304C104.485 14.688 104.373 15.096 104.149 15.528C103.925 15.944 103.653 16.328 103.333 16.68C103.029 17.016 102.725 17.24 102.421 17.352C102.357 17.384 102.277 17.4 102.181 17.4C102.117 17.4 102.085 17.376 102.085 17.328C102.085 17.2 102.213 17.056 102.469 16.896C102.789 16.672 103.093 16.336 103.381 15.888C103.669 15.424 103.813 15.016 103.813 14.664C103.813 14.456 103.765 14.296 103.669 14.184C103.573 14.056 103.461 13.992 103.333 13.992C103.093 13.992 102.829 14.184 102.541 14.568C102.269 14.936 102.069 15.576 101.941 16.488C101.909 16.744 101.877 16.992 101.845 17.232C101.829 17.456 101.821 17.68 101.821 17.904C101.821 18.8 101.957 19.504 102.229 20.016C102.501 20.512 102.861 20.76 103.309 20.76C103.693 20.76 104.125 20.536 104.605 20.088C105.085 19.624 105.557 18.904 106.021 17.928C106.133 17.672 106.261 17.544 106.405 17.544C106.501 17.544 106.549 17.608 106.549 17.736C106.549 17.848 106.517 17.968 106.453 18.096C106.037 19.12 105.533 19.912 104.941 20.472C104.349 21.032 103.773 21.312 103.213 21.312ZM109.027 22.2C108.515 22.2 108.123 21.96 107.851 21.48C107.579 21.016 107.443 20.504 107.443 19.944C107.443 19.416 107.531 18.864 107.707 18.288C107.883 17.712 108.099 17.144 108.355 16.584C108.627 16.024 108.907 15.512 109.195 15.048C108.907 15.16 108.635 15.216 108.379 15.216C108.251 15.216 108.139 15.2 108.043 15.168C107.947 15.136 107.867 15.112 107.803 15.096C107.723 15.288 107.579 15.608 107.371 16.056C107.179 16.504 106.971 16.976 106.747 17.472C106.539 17.952 106.355 18.36 106.195 18.696C105.939 19.24 105.715 19.512 105.523 19.512C105.427 19.512 105.379 19.448 105.379 19.32C105.379 19.224 105.419 19.096 105.499 18.936C105.867 18.248 106.211 17.568 106.531 16.896C106.867 16.224 107.171 15.576 107.443 14.952C107.411 14.872 107.379 14.768 107.347 14.64C107.315 14.496 107.299 14.344 107.299 14.184C107.299 14.008 107.315 13.824 107.347 13.632C107.395 13.424 107.459 13.224 107.539 13.032C107.587 12.92 107.675 12.76 107.803 12.552C107.931 12.328 108.075 12.128 108.235 11.952C108.395 11.76 108.547 11.664 108.691 11.664C108.963 11.664 109.099 11.808 109.099 12.096C109.099 12.368 109.011 12.68 108.835 13.032C108.675 13.384 108.507 13.712 108.331 14.016C108.155 14.304 108.067 14.52 108.067 14.664C108.067 14.792 108.131 14.856 108.259 14.856C108.435 14.856 108.651 14.768 108.907 14.592C109.179 14.4 109.395 14.224 109.555 14.064C109.635 13.984 109.763 13.864 109.939 13.704C110.115 13.528 110.283 13.44 110.443 13.44C110.603 13.44 110.707 13.488 110.755 13.584C110.819 13.68 110.851 13.792 110.851 13.92C110.851 14.064 110.787 14.248 110.659 14.472C110.531 14.68 110.379 14.888 110.203 15.096C110.043 15.304 109.907 15.48 109.795 15.624C109.571 15.96 109.315 16.384 109.027 16.896C108.739 17.408 108.491 17.96 108.283 18.552C108.075 19.128 107.971 19.68 107.971 20.208C107.971 20.56 108.059 20.928 108.235 21.312C108.411 21.696 108.651 21.888 108.955 21.888C109.227 21.888 109.515 21.744 109.819 21.456C110.139 21.168 110.435 20.824 110.707 20.424C110.995 20.024 111.243 19.64 111.451 19.272C111.675 18.904 111.827 18.648 111.907 18.504C111.939 18.424 111.995 18.328 112.075 18.216C112.155 18.088 112.251 18.024 112.363 18.024C112.459 18.024 112.507 18.072 112.507 18.168C112.507 18.248 112.483 18.344 112.435 18.456C112.403 18.552 112.371 18.64 112.339 18.72C112.195 19.056 112.019 19.408 111.811 19.776C111.603 20.144 111.459 20.392 111.379 20.52C111.155 20.888 110.819 21.256 110.371 21.624C109.939 22.008 109.491 22.2 109.027 22.2ZM114.111 22.032C113.903 22.032 113.751 21.96 113.655 21.816C113.575 21.688 113.535 21.56 113.535 21.432C113.535 21.176 113.647 20.912 113.871 20.64C113.951 20.544 114.063 20.416 114.207 20.256C114.351 20.08 114.455 19.944 114.519 19.848C114.311 19.56 114.031 19.296 113.679 19.056C113.327 18.816 112.983 18.512 112.647 18.144C112.343 17.808 112.087 17.4 111.879 16.92C111.671 16.424 111.567 15.952 111.567 15.504C111.567 14.976 111.687 14.472 111.927 13.992C112.167 13.512 112.463 13.096 112.815 12.744C113.199 12.36 113.623 12.056 114.087 11.832C114.551 11.592 115.031 11.472 115.527 11.472C115.863 11.472 116.191 11.552 116.511 11.712C116.831 11.872 116.991 12.136 116.991 12.504C116.991 12.936 116.895 13.152 116.703 13.152C116.623 13.152 116.567 13.072 116.535 12.912C116.519 12.832 116.511 12.752 116.511 12.672C116.511 12.576 116.511 12.512 116.511 12.48C116.511 12.32 116.439 12.184 116.295 12.072C116.151 11.944 115.991 11.88 115.815 11.88C115.447 11.88 115.039 12.024 114.591 12.312C114.143 12.6 113.767 12.936 113.463 13.32C113.159 13.72 112.911 14.176 112.719 14.688C112.527 15.184 112.431 15.664 112.431 16.128C112.431 16.704 112.559 17.2 112.815 17.616C113.071 18.032 113.375 18.4 113.727 18.72C114.095 19.04 114.423 19.352 114.711 19.656C114.855 19.48 115.007 19.312 115.167 19.152C115.343 18.992 115.503 18.864 115.647 18.768C115.775 18.688 115.863 18.648 115.911 18.648C115.959 18.648 115.983 18.672 115.983 18.72C115.983 18.8 115.911 18.896 115.767 19.008C115.735 19.04 115.639 19.136 115.479 19.296C115.335 19.44 115.159 19.624 114.951 19.848C115.079 19.992 115.183 20.144 115.263 20.304C115.343 20.464 115.383 20.64 115.383 20.832C115.383 21.088 115.239 21.352 114.951 21.624C114.663 21.896 114.383 22.032 114.111 22.032ZM114.375 21.384C114.487 21.384 114.591 21.28 114.687 21.072C114.799 20.88 114.855 20.688 114.855 20.496C114.855 20.4 114.839 20.312 114.807 20.232C114.775 20.152 114.751 20.104 114.735 20.088C114.607 20.248 114.487 20.424 114.375 20.616C114.279 20.792 114.231 20.952 114.231 21.096C114.231 21.288 114.279 21.384 114.375 21.384Z" fill="black"/>
<path d="M8.92309 22.2511C6.37249 24.7742 2.05274 24.7641 0.84635 21.4014C0.610156 20.7431 0.421311 20.0661 0.282415 19.3754C-0.284692 16.555 0.0063682 13.6318 1.11879 10.9751C2.23121 8.31849 4.11503 6.04782 6.53203 4.45026C8.94906 2.8527 11.7907 2 14.6976 2C17.6045 2 20.4461 2.8527 22.863 4.45026C25.2801 6.04782 27.1639 8.31849 28.2763 10.9752C29.3887 13.6318 29.6797 16.555 29.1127 19.3754C28.9738 20.0661 28.7849 20.7431 28.5487 21.4014C27.3423 24.7641 23.0226 24.7742 20.472 22.2511L16.5347 18.3563C16.1586 17.9842 16.1974 17.3706 16.3012 16.8545C16.3642 16.5408 16.3319 16.2156 16.2081 15.92C16.0843 15.6244 15.8748 15.3718 15.6059 15.1941C15.3371 15.0164 15.0209 14.9216 14.6976 14.9216C14.3742 14.9216 14.0581 15.0164 13.7892 15.1941C13.5202 15.3718 13.3107 15.6244 13.1869 15.92C13.0632 16.2156 13.0308 16.5408 13.0939 16.8545C13.1977 17.3706 13.2365 17.9842 12.8603 18.3563L8.92309 22.2511Z" fill="url(#paint0_linear_109_539)"/>
<defs>
<linearGradient id="paint0_linear_109_539" x1="28.0572" y1="9.26949" x2="1.9691" y2="9.26949" gradientUnits="userSpaceOnUse">
<stop stop-color="#161490"/>
<stop offset="0.510417" stop-color="#7476ED"/>
<stop offset="1" stop-color="#E56F8C"/>
</linearGradient>
</defs>
</svg>
