<svg width="100" height="56" viewBox="0 0 100 56" fill="none" xmlns="http://www.w3.org/2000/svg">
<mask id="mask0_1_784" style="mask-type:alpha" maskUnits="userSpaceOnUse" x="2" y="2" width="96" height="52">
<path d="M2.007 27.931C2.007 41.779 23.457 53.006 49.931 53.006C76.405 53.006 97.865 41.779 97.865 27.93C97.865 14.081 76.405 2.85404 49.931 2.85404C23.457 2.85404 2.007 14.083 2.007 27.931Z" fill="white"/>
</mask>
<g mask="url(#mask0_1_784)">
<path d="M2.007 27.931C2.007 41.779 23.457 53.006 49.931 53.006C76.405 53.006 97.865 41.779 97.865 27.93C97.865 14.081 76.405 2.85404 49.931 2.85404C23.457 2.85404 2.007 14.083 2.007 27.931Z" fill="url(#paint0_radial_1_784)"/>
</g>
<mask id="mask1_1_784" style="mask-type:alpha" maskUnits="userSpaceOnUse" x="0" y="0" width="100" height="56">
<path d="M0 0H99.86V55.862H0V0Z" fill="white"/>
</mask>
<g mask="url(#mask1_1_784)">
<path d="M49.93 51.145C75.368 51.145 95.99 40.752 95.99 27.931C95.99 15.11 75.37 4.71696 49.93 4.71696C24.49 4.71696 3.87 15.112 3.87 27.932C3.87 40.752 24.492 51.145 49.93 51.145Z" fill="#777BB3"/>
</g>
<mask id="mask2_1_784" style="mask-type:alpha" maskUnits="userSpaceOnUse" x="0" y="0" width="100" height="56">
<path d="M0 0H99.86V55.862H0V0Z" fill="white"/>
</mask>
<g mask="url(#mask2_1_784)">
<path d="M28.04 30.809C30.132 30.809 31.693 30.425 32.68 29.669C33.657 28.921 34.333 27.624 34.686 25.815C35.016 24.125 34.89 22.945 34.313 22.307C33.723 21.657 32.445 21.327 30.517 21.327H27.174L25.321 30.81H28.038L28.04 30.809ZM17.107 42.489C17.0304 42.4891 16.9548 42.4723 16.8855 42.4398C16.8162 42.4073 16.7549 42.3599 16.706 42.301C16.606 42.181 16.566 42.025 16.596 41.873L21.506 16.743C21.5296 16.6249 21.5935 16.5187 21.6866 16.4425C21.7798 16.3662 21.8966 16.3247 22.017 16.325H32.602C35.929 16.325 38.405 17.223 39.962 18.995C41.527 20.775 42.01 23.265 41.398 26.395C41.164 27.6283 40.7343 28.8163 40.125 29.914C39.529 30.974 38.741 31.957 37.783 32.834C36.636 33.902 35.338 34.676 33.928 35.131C32.541 35.581 30.758 35.808 28.632 35.808H24.346L23.122 42.07C23.0986 42.188 23.035 42.2943 22.942 42.3707C22.849 42.4472 22.7324 42.4889 22.612 42.489H17.107Z" fill="black"/>
<path d="M27.605 21.842H30.519C32.846 21.842 33.654 22.35 33.919 22.642C34.375 23.144 34.461 24.204 34.169 25.705C33.839 27.385 33.229 28.578 32.356 29.247C31.461 29.932 30.006 30.279 28.032 30.279H25.946L27.596 21.831L27.605 21.842ZM32.603 15.808H22.018C21.7772 15.8078 21.5438 15.8911 21.3576 16.0438C21.1715 16.1964 21.044 16.4089 20.997 16.645L16.087 41.775C16.0577 41.9248 16.0621 42.0792 16.0998 42.2271C16.1375 42.3749 16.2076 42.5126 16.305 42.63C16.4029 42.748 16.5256 42.8429 16.6644 42.9079C16.8032 42.9729 16.9547 43.0064 17.108 43.006H22.613C22.8538 43.0063 23.0871 42.923 23.2733 42.7703C23.4595 42.6177 23.587 42.4052 23.634 42.169L24.776 36.325H28.633C30.813 36.325 32.651 36.088 34.091 35.622C35.571 35.144 36.934 34.322 38.141 33.212C39.138 32.3 39.961 31.275 40.581 30.168C41.201 29.061 41.651 27.824 41.911 26.495C42.555 23.201 42.031 20.565 40.356 18.655C38.696 16.765 36.089 15.808 32.606 15.808H32.603ZM24.693 31.325H28.041C30.261 31.325 31.913 30.909 33.001 30.078C34.089 29.247 34.821 27.858 35.201 25.913C35.565 24.045 35.399 22.727 34.703 21.96C34.007 21.193 32.613 20.808 30.521 20.808H26.751L24.696 31.325H24.693ZM32.603 16.842C35.787 16.842 38.11 17.672 39.57 19.335C41.03 20.998 41.47 23.317 40.887 26.295C40.647 27.522 40.242 28.645 39.671 29.66C39.1 30.675 38.353 31.607 37.431 32.46C36.331 33.483 35.111 34.212 33.767 34.646C32.423 35.08 30.712 35.298 28.632 35.298H23.917L22.61 41.962H17.105L22.015 16.832H32.6L32.603 16.842Z" fill="white"/>
<path d="M54.02 35.809C53.9434 35.8091 53.8678 35.7923 53.7985 35.7598C53.7292 35.7273 53.6679 35.6799 53.619 35.621C53.519 35.501 53.479 35.345 53.509 35.193L55.682 24.073C55.889 23.016 55.838 22.257 55.539 21.936C55.356 21.74 54.806 21.411 53.179 21.411H49.243L46.513 35.389C46.4896 35.5073 46.4258 35.6137 46.3326 35.6901C46.2394 35.7666 46.1225 35.8082 46.002 35.808H40.542C40.4654 35.8081 40.3898 35.7913 40.3205 35.7588C40.2512 35.7263 40.1899 35.6789 40.141 35.62C40.041 35.5 40.001 35.344 40.031 35.192L44.941 10.062C44.9646 9.94396 45.0285 9.83776 45.1216 9.76153C45.2148 9.6853 45.3316 9.64377 45.452 9.64402H50.912C50.9885 9.64391 51.0642 9.6607 51.1335 9.6932C51.2028 9.72569 51.2641 9.7731 51.313 9.83202C51.413 9.95202 51.453 10.108 51.423 10.26L50.238 16.325H54.472C57.698 16.325 59.885 16.891 61.159 18.055C62.459 19.242 62.863 21.14 62.363 23.695L60.078 35.389C60.0546 35.5073 59.9908 35.6137 59.8976 35.6901C59.8044 35.7666 59.6875 35.8082 59.567 35.808H54.02V35.809Z" fill="black"/>
<path d="M50.912 9.12811H45.452C45.2112 9.12787 44.9778 9.21118 44.7916 9.36382C44.6054 9.51646 44.478 9.72898 44.431 9.96511L39.521 35.0951C39.4917 35.2449 39.4961 35.3993 39.5338 35.5471C39.5715 35.695 39.6416 35.8326 39.739 35.9501C39.8368 36.0681 39.9596 36.163 40.0984 36.228C40.2372 36.293 40.3887 36.3265 40.542 36.3261H46C46.2407 36.3263 46.4741 36.243 46.6603 36.0904C46.8465 35.9378 46.974 35.7252 47.021 35.4891L49.671 21.9291H53.178C54.801 21.9291 55.142 22.2741 55.156 22.2891C55.254 22.3941 55.384 22.8821 55.17 23.9751L52.997 35.0951C52.9677 35.2449 52.9721 35.3993 53.0098 35.5471C53.0475 35.695 53.1176 35.8326 53.215 35.9501C53.3128 36.0681 53.4356 36.163 53.5744 36.228C53.7132 36.293 53.8647 36.3265 54.018 36.3261H59.566C59.8067 36.3263 60.0401 36.243 60.2263 36.0904C60.4125 35.9378 60.54 35.7252 60.587 35.4891L62.872 23.7951C63.408 21.0501 62.949 18.9911 61.509 17.6751C60.135 16.4201 57.832 15.8091 54.469 15.8091H50.87L51.935 10.3591C51.9643 10.2093 51.9599 10.0549 51.9222 9.90708C51.8845 9.75922 51.8144 9.62157 51.717 9.5041C51.519 9.2661 51.225 9.12711 50.914 9.12711L50.912 9.12811ZM50.914 10.1611L49.608 16.8411H54.473C57.533 16.8411 59.646 17.3711 60.808 18.4341C61.97 19.4971 62.308 21.2171 61.854 23.5961L59.567 35.2921H54.02L56.193 24.1721C56.44 22.9071 56.349 22.0441 55.92 21.5841C55.491 21.1241 54.577 20.8841 53.18 20.8841H48.815L46 35.2921H40.54L45.45 10.1621H50.91" fill="white"/>
<path d="M71.004 30.8091C73.096 30.8091 74.657 30.4251 75.644 29.6691C76.621 28.9211 77.297 27.6241 77.651 25.8151C77.981 24.1251 77.855 22.9452 77.277 22.3071C76.687 21.6572 75.409 21.3272 73.481 21.3272H70.14L68.287 30.8101H71.004V30.8091ZM60.07 42.4901C59.9934 42.4903 59.9178 42.4735 59.8485 42.441C59.7792 42.4085 59.7179 42.3611 59.669 42.3021C59.569 42.1821 59.529 42.0261 59.559 41.8741L64.469 16.7442C64.4926 16.6261 64.5565 16.5199 64.6497 16.4437C64.7428 16.3674 64.8596 16.3259 64.98 16.3262H75.565C78.892 16.3262 81.368 17.2241 82.925 18.9961C84.49 20.7761 84.973 23.2662 84.361 26.3962C84.111 27.6712 83.684 28.8561 83.088 29.9162C82.492 30.9762 81.704 31.9592 80.746 32.8362C79.599 33.9042 78.301 34.6781 76.891 35.1331C75.504 35.5831 73.721 35.8101 71.595 35.8101H67.31L66.087 42.0721C66.0636 42.1904 65.9998 42.2968 65.9066 42.3733C65.8134 42.4497 65.6965 42.4914 65.576 42.4911H60.07V42.4901Z" fill="black"/>
<path d="M70.57 21.842H73.484C75.811 21.842 76.619 22.35 76.884 22.642C77.34 23.144 77.426 24.204 77.134 25.705C76.804 27.385 76.194 28.578 75.321 29.247C74.426 29.932 72.971 30.279 70.997 30.279H68.911L70.561 21.831L70.57 21.842ZM75.568 15.808H64.982C64.7412 15.8078 64.5078 15.8911 64.3216 16.0438C64.1354 16.1964 64.008 16.4089 63.961 16.645L59.051 41.775C59.0217 41.9248 59.0261 42.0792 59.0638 42.2271C59.1015 42.3749 59.1716 42.5126 59.269 42.63C59.3669 42.748 59.4896 42.8429 59.6284 42.9079C59.7672 42.9729 59.9187 43.0064 60.072 43.006H65.577C65.8177 43.0063 66.0511 42.923 66.2373 42.7703C66.4235 42.6177 66.551 42.4052 66.598 42.169L67.74 36.325H71.597C73.777 36.325 75.615 36.088 77.055 35.622C78.535 35.144 79.898 34.322 81.105 33.212C82.0753 32.3336 82.8993 31.306 83.546 30.168C84.169 29.06 84.616 27.824 84.876 26.495C85.52 23.201 84.996 20.563 83.321 18.655C81.661 16.765 79.054 15.808 75.571 15.808H75.568ZM67.658 31.325H71.006C73.226 31.325 74.878 30.909 75.966 30.078C77.054 29.247 77.786 27.858 78.166 25.913C78.53 24.045 78.366 22.727 77.668 21.96C76.97 21.193 75.578 20.808 73.486 20.808H69.716L67.661 31.325H67.658ZM75.568 16.842C78.752 16.842 81.075 17.672 82.535 19.335C83.995 20.998 84.435 23.317 83.852 26.295C83.612 27.522 83.207 28.645 82.636 29.66C82.065 30.675 81.318 31.607 80.396 32.46C79.296 33.483 78.076 34.212 76.732 34.646C75.388 35.08 73.677 35.298 71.597 35.298H66.88L65.575 41.978H60.07L64.98 16.848H75.565L75.568 16.842Z" fill="white"/>
</g>
<defs>
<radialGradient id="paint0_radial_1_784" cx="0" cy="0" r="1" gradientUnits="userSpaceOnUse" gradientTransform="translate(17.1566 11.67) scale(62.9376 62.9442)">
<stop stop-color="#AEB2D5"/>
<stop offset="0.3" stop-color="#AEB2D5"/>
<stop offset="0.75" stop-color="#484C89"/>
<stop offset="1" stop-color="#484C89"/>
</radialGradient>
</defs>
</svg>
