<svg width="166" height="94" viewBox="0 0 166 94" fill="none" xmlns="http://www.w3.org/2000/svg">
<path fill-rule="evenodd" clip-rule="evenodd" d="M69.76 47.18C69.76 49.158 69.286 50.8 68.332 52.105C67.268 53.583 65.794 54.345 63.909 54.385C62.489 54.429 61.025 53.985 59.509 53.082V61.528L57.073 60.678V41.93C57.473 41.45 57.987 41.03 58.611 40.69C60.061 39.864 61.823 39.44 63.897 39.418L63.932 39.452C65.827 39.428 67.288 40.189 68.314 41.732C69.271 43.147 69.751 44.96 69.751 47.178L69.76 47.18ZM66.949 47.016C66.949 43.123 65.814 41.124 63.543 41.016C62.639 40.974 61.757 41.116 60.899 41.441C60.214 41.681 59.753 41.918 59.499 42.158V51.45C60.952 52.35 62.242 52.755 63.367 52.69C65.747 52.536 66.939 50.647 66.939 47.017L66.949 47.016ZM84.639 52.722C84.639 55.375 84.367 57.222 83.823 58.222C83.279 59.222 82.237 60.059 80.703 60.666C79.458 61.146 78.103 61.406 76.667 61.45L76.264 59.95C77.734 59.755 78.767 59.55 79.367 59.363C80.547 58.963 81.367 58.363 81.803 57.57C82.16 56.916 82.336 55.668 82.336 53.82V53.2C80.688 53.9356 78.9027 54.3132 77.098 54.308C75.898 54.308 74.84 53.94 73.928 53.2C72.904 52.395 72.393 51.373 72.393 50.136V40.226L74.829 39.41V49.388C74.829 50.454 75.181 51.275 75.885 51.85C76.589 52.425 77.5 52.702 78.617 52.68C79.734 52.658 80.931 52.234 82.202 51.408V39.78H84.638V52.723L84.639 52.722ZM94.151 54.254L93.348 54.288C91.97 54.288 90.896 53.968 90.128 53.324C89.36 52.68 88.98 51.792 88.98 50.658V41.278H87.31V39.78H88.98V35.8L91.414 34.953V39.78H94.151V41.278H91.414V50.594C91.414 51.488 91.659 52.121 92.15 52.491C92.57 52.796 93.25 52.971 94.152 53.015V54.255L94.151 54.254ZM108.903 54.06H106.467V44.867C106.467 43.932 106.243 43.127 105.797 42.454C105.569 42.0937 105.252 41.7991 104.875 41.5992C104.499 41.3993 104.077 41.301 103.651 41.314C102.534 41.314 101.137 41.89 99.451 43.041V54.061H97.015V32.084L99.451 31.334V41.334C101.019 40.224 102.719 39.67 104.566 39.67C105.866 39.67 106.901 40.095 107.701 40.942C108.501 41.789 108.903 42.844 108.903 44.105V54.049V54.06ZM124.521 46.658C124.521 48.788 123.964 50.558 122.851 51.974C121.628 53.559 119.938 54.354 117.781 54.354C115.643 54.354 113.977 53.559 112.775 51.974C111.675 50.559 111.141 48.787 111.141 46.658C111.141 44.658 111.741 42.973 112.908 41.603C114.164 40.15 115.8 39.42 117.824 39.42C119.848 39.42 121.494 40.15 122.764 41.603C123.942 42.973 124.531 44.657 124.531 46.658H124.521ZM121.863 46.642C121.863 45.146 121.563 43.912 120.993 42.934C120.305 41.734 119.237 41.114 117.791 41.05C115.121 41.2 113.787 43.072 113.787 46.658C113.787 48.302 114.065 49.676 114.624 50.778C115.338 52.183 116.41 52.876 117.839 52.852C120.521 52.832 121.861 50.752 121.861 46.652L121.863 46.642ZM138.501 54.06H136.065V44.346C136.065 43.28 135.737 42.449 135.082 41.85C134.427 41.251 133.552 40.964 132.462 40.987C131.305 41.007 130.204 41.387 129.159 42.095V54.06H126.723V41.8C128.125 40.802 129.416 40.15 130.593 39.846C131.693 39.562 132.685 39.421 133.531 39.421C134.109 39.421 134.653 39.475 135.165 39.585C136.123 39.801 136.901 40.202 137.5 40.791C137.822 41.0908 138.077 41.4545 138.25 41.8589C138.422 42.2633 138.508 42.6994 138.502 43.139V54.059L138.501 54.06Z" fill="#646464"/>
<mask id="mask0_1_818" style="mask-type:alpha" maskUnits="userSpaceOnUse" x="18" y="32" width="23" height="23">
<path d="M33.02 32.1719C31.767 32.1779 30.57 32.2719 29.516 32.4639C26.413 32.9999 25.85 34.1219 25.85 36.1899V38.9219H33.183V39.8319H23.097C20.967 39.8319 19.1 41.0839 18.517 43.4659C18.178 44.8399 18.002 45.9519 18 47.0829V47.1209C18.002 48.2259 18.17 49.3509 18.516 50.7509C19.036 52.8729 20.282 54.3849 22.413 54.3849H24.933V51.1099C24.933 48.7439 27.027 46.6569 29.513 46.6569H36.837C38.877 46.6569 40.503 45.0169 40.503 43.0139V36.1899C40.503 34.2479 38.827 32.7879 36.837 32.4639C35.6111 32.2681 34.3715 32.1704 33.13 32.1719H33.016H33.02ZM27.678 35.7399C27.678 34.9839 28.294 34.3699 29.054 34.3699C29.814 34.3699 30.43 34.9839 30.43 35.7399C30.4279 36.1029 30.2818 36.4502 30.0238 36.7056C29.7658 36.9609 29.417 37.1035 29.054 37.1019C28.294 37.1019 27.678 36.4919 27.678 35.7399Z" fill="white"/>
</mask>
<g mask="url(#mask0_1_818)">
<path fill-rule="evenodd" clip-rule="evenodd" d="M33.02 32.1719C31.767 32.1779 30.57 32.2719 29.516 32.4639C26.413 32.9999 25.85 34.1219 25.85 36.1899V38.9219H33.183V39.8319H23.097C20.967 39.8319 19.1 41.0839 18.517 43.4659C18.178 44.8399 18.002 45.9519 18 47.0829V47.1209C18.002 48.2259 18.17 49.3509 18.516 50.7509C19.036 52.8729 20.282 54.3849 22.413 54.3849H24.933V51.1099C24.933 48.7439 27.027 46.6569 29.513 46.6569H36.837C38.877 46.6569 40.503 45.0169 40.503 43.0139V36.1899C40.503 34.2479 38.827 32.7879 36.837 32.4639C35.6111 32.2681 34.3715 32.1704 33.13 32.1719H33.016H33.02ZM27.678 35.7399C27.678 34.9839 28.294 34.3699 29.054 34.3699C29.814 34.3699 30.43 34.9839 30.43 35.7399C30.4279 36.1029 30.2818 36.4502 30.0238 36.7056C29.7658 36.9609 29.417 37.1035 29.054 37.1019C28.294 37.1019 27.678 36.4919 27.678 35.7399Z" fill="url(#paint0_linear_1_818)"/>
</g>
<mask id="mask1_1_818" style="mask-type:alpha" maskUnits="userSpaceOnUse" x="25" y="39" width="24" height="24">
<path d="M41.421 39.833V43.017C41.421 45.485 39.281 47.562 36.841 47.562H29.515C27.509 47.562 25.849 49.242 25.849 51.205V58.031C25.849 59.973 27.577 61.116 29.515 61.673C31.835 62.34 34.062 62.461 36.839 61.673C38.685 61.151 40.505 60.099 40.505 58.031V55.307H33.183V54.407H44.173C46.303 54.407 47.098 52.954 47.839 50.773C48.605 48.528 48.572 46.368 47.839 43.488C47.313 41.393 46.307 39.833 44.173 39.833H41.421ZM35.926 58.48C35.9281 58.117 36.0742 57.7697 36.3322 57.5143C36.5902 57.2589 36.939 57.1164 37.302 57.118C38.062 57.118 38.678 57.728 38.678 58.48C38.678 59.232 38.062 59.85 37.302 59.85C36.542 59.85 35.926 59.235 35.926 58.48Z" fill="white"/>
</mask>
<g mask="url(#mask1_1_818)">
<path fill-rule="evenodd" clip-rule="evenodd" d="M41.421 39.833V43.017C41.421 45.485 39.281 47.562 36.841 47.562H29.515C27.509 47.562 25.849 49.242 25.849 51.205V58.031C25.849 59.973 27.577 61.116 29.515 61.673C31.835 62.34 34.062 62.461 36.839 61.673C38.685 61.151 40.505 60.099 40.505 58.031V55.307H33.183V54.407H44.173C46.303 54.407 47.098 52.954 47.839 50.773C48.605 48.528 48.572 46.368 47.839 43.488C47.313 41.393 46.307 39.833 44.173 39.833H41.421ZM35.926 58.48C35.9281 58.117 36.0742 57.7697 36.3322 57.5143C36.5902 57.2589 36.939 57.1164 37.302 57.118C38.062 57.118 38.678 57.728 38.678 58.48C38.678 59.232 38.062 59.85 37.302 59.85C36.542 59.85 35.926 59.235 35.926 58.48Z" fill="url(#paint1_linear_1_818)"/>
</g>
<mask id="mask2_1_818" style="mask-type:alpha" maskUnits="userSpaceOnUse" x="142" y="34" width="6" height="4">
<path d="M142.232 34.7239H147.85V37.6539H142.232V34.7239Z" fill="white"/>
</mask>
<g mask="url(#mask2_1_818)">
<path fill-rule="evenodd" clip-rule="evenodd" d="M145.062 37.6549H145.427V35.2629L146.22 37.6549H146.626L147.45 35.2709V37.6549H147.848V34.7239H147.321L146.42 37.2349L145.65 34.7239H145.06V37.6539L145.062 37.6549ZM143.244 37.6549H143.671V35.0369H144.683V34.7239H142.232V35.0369H143.244V37.6569V37.6549Z" fill="#646464"/>
</g>
<defs>
<linearGradient id="paint0_linear_1_818" x1="17.2545" y1="33.2896" x2="33.8437" y2="47.3777" gradientUnits="userSpaceOnUse">
<stop stop-color="#599ED4"/>
<stop offset="1" stop-color="#2F6997"/>
</linearGradient>
<linearGradient id="paint1_linear_1_818" x1="40.5096" y1="55.8182" x2="34.5787" y2="47.5357" gradientUnits="userSpaceOnUse">
<stop stop-color="#FFD43B"/>
<stop offset="1" stop-color="#FFE872"/>
</linearGradient>
</defs>
</svg>
